<?xml version="1.0" standalone="no"?>
<!DOCTYPE svg PUBLIC "-//W3C//DTD SVG 1.1//EN" "http://www.w3.org/Graphics/SVG/1.1/DTD/svg11.dtd">
<!--Generator: Xara Designer (www.xara.com), SVG filter version: 6.5.0.22-->
<svg fill="none" fill-rule="evenodd" stroke="black" stroke-width="0.501" stroke-linejoin="bevel" stroke-miterlimit="10" font-family="Times New Roman" font-size="16" style="font-variant-ligatures:none" xmlns:xlink="http://www.w3.org/1999/xlink" xmlns="http://www.w3.org/2000/svg" version="1.1" overflow="visible" width="388.109pt" height="387.676pt" viewBox="0 -387.676 388.109 387.676">
 <defs>
	</defs>
 <g id="Layer 1" transform="scale(1 -1)">
  <g id="Group" stroke-linejoin="miter">
   <g id="Group_1" stroke="none" stroke-width="1.756">
    <path d="M 2.502,20.42 L 2.502,297.944 L 129.042,367.684 L 130.48,93.036 L 2.502,20.42 Z" fill="#84dbff" marker-start="none" marker-end="none"/>
    <path d="M 249.088,295.977 L 248.39,20.42 L 130.48,93.036 L 129.042,367.684 L 249.088,295.977 Z" fill="#54bfeb" marker-start="none" marker-end="none"/>
    <path d="M 384.072,359.777 L 385.222,85.415 L 248.39,20.42 L 249.088,295.977 L 384.072,359.777 Z" fill="#84dbff" marker-start="none" marker-end="none"/>
   </g>
   <path d="M 129.184,340.627 L 30.02,283.199 L 29.661,61.396 L 130.347,118.915" fill="none" stroke-linecap="round" stroke="#ffffff" stroke-width="6.135"/>
   <path d="M 107.311,158.098 L 107.249,105.721" fill="none" stroke-linecap="round" stroke="#ffffff" stroke-width="6.135"/>
   <path d="M 248.456,46.656 L 130.344,119.271" fill="none" stroke-linecap="round" stroke="#ffffff" stroke-width="6.135"/>
   <path d="M 182.049,175.135 L 180.057,88.709" fill="none" stroke-linecap="round" stroke="#ffffff" stroke-width="6.135"/>
   <path d="M 182.049,175.135 L 248.681,135.446 L 356.615,186.064" fill="none" stroke-linecap="round" stroke="#ffffff" stroke-width="6.135"/>
   <path d="M 248.456,46.656 L 357.478,99.786" fill="none" stroke-linecap="round" stroke="#ffffff" stroke-width="6.135"/>
   <path d="M 268.808,144.885 L 269.846,57.08" fill="none" stroke-linecap="round" stroke="#ffffff" stroke-width="6.135"/>
   <path d="M 358.053,321.519 L 357.478,99.786" fill="none" stroke-linecap="round" stroke="#ffffff" stroke-width="6.135"/>
   <path d="M 316.64,212.521 L 356.833,231.792" fill="none" stroke-linecap="round" stroke="#ffffff" stroke-width="6.135"/>
   <path d="M 249.02,269.174 L 358.053,321.519" fill="none" stroke-linecap="round" stroke="#ffffff" stroke-width="6.135"/>
   <path d="M 129.184,340.627 L 249.02,269.174" fill="none" stroke-linecap="round" stroke="#ffffff" stroke-width="6.135"/>
   <path d="M 161.269,321.497 L 160.192,233.802 L 248.795,180.024" fill="none" stroke-linecap="round" stroke="#ffffff" stroke-width="6.135"/>
   <path d="M 274.166,190.606 L 248.795,180.024" fill="none" stroke-linecap="round" stroke="#ffffff" stroke-width="6.135"/>
   <path d="M 106.838,327.686 L 107.311,277.088" fill="none" stroke-linecap="round" stroke="#ffffff" stroke-width="6.135"/>
   <path d="M 29.845,174.184 L 107.228,217.139" fill="none" stroke-linecap="round" stroke="#ffffff" stroke-width="6.135"/>
   <path d="M 107.047,230.08 L 107.587,205.275" fill="none" stroke-linecap="round" stroke="#ffffff" stroke-width="6.135"/>
   <path d="M 273.127,280.004 L 273.666,234.474 L 274.166,192.199" fill="none" stroke-linecap="round" stroke="#ffffff" stroke-width="6.135"/>
  </g>
 </g>
</svg>
